<svg width="89" height="16" viewBox="0 0 89 16" fill="none" xmlns="http://www.w3.org/2000/svg">
<path d="M9.15071 0.351823L11.4851 5.01726C11.5042 5.05492 11.5322 5.08754 11.5667 5.1124C11.6012 5.13727 11.6412 5.15366 11.6834 5.16023L16.8957 5.90662C16.9627 5.91943 17.0222 5.9571 17.0618 6.01187C17.1015 6.06663 17.1184 6.13432 17.1089 6.20097C17.1002 6.25756 17.0733 6.30988 17.0322 6.35024L13.2716 9.98126C13.2409 10.0104 13.2178 10.0465 13.2044 10.0865C13.1911 10.1264 13.1878 10.1689 13.1948 10.2104L14.0881 15.3384C14.0993 15.406 14.0833 15.4753 14.0435 15.5315C14.0037 15.5877 13.9432 15.6263 13.8749 15.6391C13.8172 15.6481 13.7582 15.6385 13.7065 15.6117L9.03773 13.1918C8.99995 13.1721 8.95787 13.1618 8.91514 13.1618C8.87241 13.1618 8.83033 13.1721 8.79256 13.1918L4.1238 15.6117C4.0804 15.6346 4.03137 15.6449 3.9823 15.6416C3.93322 15.6382 3.8861 15.6213 3.8463 15.5928C3.8065 15.5643 3.77563 15.5253 3.75722 15.4804C3.73882 15.4354 3.73361 15.3862 3.74219 15.3384L4.63331 10.2167C4.64084 10.1754 4.63796 10.1329 4.62495 10.093C4.61195 10.053 4.5892 10.0168 4.5587 9.98756L0.781053 6.35655C0.756366 6.3325 0.736768 6.30385 0.723391 6.27227C0.710014 6.24069 0.703125 6.20681 0.703125 6.17258C0.703125 6.13836 0.710014 6.10447 0.723391 6.07289C0.736768 6.04131 0.756366 6.01267 0.781053 5.98862C0.821978 5.94804 0.875038 5.92151 0.932413 5.91293L6.15119 5.16443C6.19341 5.15876 6.23357 5.14296 6.26814 5.1184C6.30271 5.09383 6.33064 5.06126 6.34945 5.02356L8.68384 0.358124C8.69923 0.327487 8.72064 0.300166 8.74681 0.27774C8.77298 0.255314 8.8034 0.238229 8.83631 0.227475C8.86922 0.216721 8.90397 0.212515 8.93854 0.215091C8.97312 0.217668 9.00683 0.226979 9.03773 0.242489C9.08599 0.266469 9.12548 0.304687 9.15071 0.351823Z" fill="#F3CC30"/>
<path d="M8.91231 1.43042L6.83376 5.40413C6.77964 5.50649 6.70035 5.59382 6.60313 5.6581C6.50592 5.72238 6.3939 5.76156 6.27735 5.77207L1.75781 6.17995L6.5289 6.3902C6.6767 6.39707 6.82289 6.35737 6.94629 6.27686C7.0697 6.19635 7.16394 6.0792 7.21536 5.94237L8.91231 1.43042Z" fill="#F7DB5E"/>
<path d="M3.84601 14.7497L3.74155 15.3384C3.73388 15.3863 3.73977 15.4352 3.75854 15.48C3.77732 15.5247 3.80826 15.5635 3.84795 15.592C3.88765 15.6204 3.93455 15.6376 3.98349 15.6414C4.03243 15.6453 4.08149 15.6358 4.12528 15.6139L8.79617 13.1918C8.83394 13.1721 8.87603 13.1618 8.91876 13.1618C8.96148 13.1618 9.00356 13.1721 9.04133 13.1918L13.6994 15.6139C13.7615 15.6452 13.8335 15.6513 13.9001 15.6308C13.9666 15.6104 14.0224 15.5651 14.0555 15.5045C14.0819 15.4533 14.0909 15.3951 14.081 15.3384L13.1984 10.2168C13.191 10.175 13.1941 10.132 13.2075 10.0917C13.2209 10.0513 13.2441 10.0149 13.2752 9.98548L17.0507 6.35447C17.0754 6.33041 17.095 6.30176 17.1084 6.27018C17.1217 6.2386 17.1286 6.20472 17.1286 6.1705C17.1286 6.13627 17.1217 6.10239 17.1084 6.07081C17.095 6.03923 17.0754 6.01058 17.0507 5.98653C17.0098 5.94595 16.9567 5.91942 16.8994 5.91084L15.1512 5.66064C12.3287 10.6625 7.99886 13.2969 3.84601 14.7497Z" fill="#EDBD31"/>
<path d="M26.9497 0.35144L29.2841 5.01688C29.3029 5.05475 29.3308 5.08754 29.3654 5.11245C29.3999 5.13735 29.44 5.15362 29.4824 5.15985L34.7011 5.90623C34.7703 5.91613 34.8327 5.95265 34.8747 6.00782C34.9166 6.06298 34.9347 6.1323 34.925 6.20059C34.9163 6.25717 34.8894 6.30949 34.8482 6.34986L31.0706 9.98087C31.0401 10.0101 31.0173 10.0463 31.0043 10.0863C30.9913 10.1262 30.9885 10.1687 30.996 10.21L31.8871 15.338C31.8957 15.3858 31.8905 15.435 31.8721 15.48C31.8537 15.525 31.8228 15.5639 31.783 15.5924C31.7432 15.6209 31.6961 15.6378 31.647 15.6412C31.5979 15.6445 31.5489 15.6342 31.5055 15.6114L26.8367 13.1914C26.799 13.1717 26.7569 13.1614 26.7141 13.1614C26.6714 13.1614 26.6293 13.1717 26.5916 13.1914L21.9228 15.6114C21.8793 15.6339 21.8302 15.644 21.7812 15.6406C21.7321 15.6372 21.685 15.6203 21.6451 15.5919C21.6052 15.5635 21.5742 15.5247 21.5555 15.4798C21.5367 15.435 21.5311 15.3859 21.5391 15.338L22.4366 10.2164C22.4441 10.175 22.4412 10.1325 22.4282 10.0926C22.4152 10.0526 22.3925 10.0164 22.362 9.98717L18.5779 6.34986C18.5532 6.3258 18.5336 6.29716 18.5203 6.26558C18.5069 6.234 18.5 6.20011 18.5 6.16589C18.5 6.13166 18.5069 6.09778 18.5203 6.0662C18.5336 6.03462 18.5532 6.00597 18.5779 5.98192C18.6189 5.94134 18.6719 5.91481 18.7293 5.90623L23.9481 5.15774C23.9903 5.15226 24.0306 5.13652 24.0652 5.11193C24.0998 5.08735 24.1277 5.05469 24.1463 5.01688L26.4871 0.35144C26.5096 0.308661 26.5435 0.272788 26.5853 0.247752C26.627 0.222716 26.6749 0.209473 26.7237 0.209473C26.7726 0.209473 26.8205 0.222716 26.8622 0.247752C26.904 0.272788 26.9379 0.308661 26.9604 0.35144H26.9497Z" fill="#F3CC30"/>
<path d="M26.711 1.43042L24.6303 5.40413C24.5763 5.50661 24.4971 5.59404 24.3998 5.65834C24.3026 5.72265 24.1905 5.76175 24.0739 5.77207L19.5586 6.17995L24.3297 6.3902C24.4775 6.39707 24.6237 6.35737 24.7471 6.27686C24.8705 6.19635 24.9647 6.0792 25.0161 5.94237L26.711 1.43042Z" fill="#F7DB5E"/>
<path d="M21.6412 14.7497L21.5389 15.3384C21.5307 15.3862 21.5361 15.4352 21.5545 15.4801C21.573 15.5249 21.6038 15.5638 21.6434 15.5924C21.683 15.621 21.7299 15.6382 21.7788 15.642C21.8278 15.6458 21.8768 15.636 21.9205 15.6139L26.5892 13.1918C26.627 13.1721 26.6691 13.1618 26.7118 13.1618C26.7546 13.1618 26.7966 13.1721 26.8344 13.1918L31.5032 15.6139C31.5652 15.6452 31.6372 15.6513 31.7038 15.6308C31.7703 15.6104 31.8261 15.5651 31.8592 15.5045C31.8867 15.4537 31.8957 15.3951 31.8848 15.3384L30.9937 10.2168C30.9868 10.175 30.9902 10.1321 31.0035 10.0919C31.0169 10.0517 31.0398 10.0152 31.0704 9.98548L34.848 6.35447C34.8969 6.30534 34.9242 6.23929 34.9242 6.1705C34.9242 6.10171 34.8969 6.03566 34.848 5.98653C34.8071 5.94595 34.7541 5.91942 34.6967 5.91084L32.9486 5.66064C30.126 10.6625 25.7941 13.2969 21.6412 14.7497Z" fill="#EDBD31"/>
<path d="M44.7514 0.351645L47.0964 5.01708C47.1156 5.05475 47.1435 5.08736 47.178 5.11223C47.2125 5.13709 47.2525 5.15349 47.2947 5.16005L52.4985 5.90644C52.5677 5.91633 52.6301 5.95285 52.6721 6.00802C52.714 6.06319 52.7321 6.13251 52.7224 6.20079C52.7146 6.25766 52.6876 6.31026 52.6456 6.35006L48.8744 9.98108C48.8432 10.0099 48.8198 10.046 48.8064 10.086C48.793 10.1261 48.79 10.1688 48.7976 10.2102L49.6888 15.3382C49.6973 15.386 49.6921 15.4352 49.6737 15.4802C49.6553 15.5252 49.6245 15.5641 49.5847 15.5926C49.5449 15.6211 49.4977 15.638 49.4487 15.6414C49.3996 15.6447 49.3506 15.6344 49.3072 15.6116L44.6384 13.1916C44.6006 13.1719 44.5585 13.1616 44.5158 13.1616C44.4731 13.1616 44.431 13.1719 44.3932 13.1916L39.7245 15.6116C39.6939 15.6276 39.6603 15.6376 39.6258 15.6407C39.5913 15.6439 39.5564 15.6404 39.5233 15.6302C39.4902 15.62 39.4595 15.6035 39.4329 15.5815C39.4063 15.5595 39.3844 15.5326 39.3685 15.5022C39.3409 15.4521 39.3319 15.3942 39.3429 15.3382L40.234 10.2166C40.241 10.1751 40.2377 10.1325 40.2244 10.0926C40.211 10.0527 40.188 10.0165 40.1572 9.98738L36.3817 6.35006C36.3324 6.3012 36.3047 6.23505 36.3047 6.16609C36.3047 6.09713 36.3324 6.03098 36.3817 5.98212C36.4226 5.94155 36.4757 5.91502 36.5331 5.90644L41.754 5.15795C41.7962 5.15228 41.8364 5.13647 41.8709 5.11191C41.9055 5.08734 41.9334 5.05479 41.9523 5.01708L44.2973 0.351645C44.3194 0.308788 44.3531 0.272796 44.3947 0.247662C44.4363 0.222528 44.4841 0.209229 44.5329 0.209229C44.5816 0.209229 44.6294 0.222528 44.671 0.247662C44.7126 0.272796 44.7463 0.308788 44.7684 0.351645H44.7514Z" fill="#F3CC30"/>
<path d="M44.5156 1.43066L42.435 5.40437C42.3815 5.50681 42.3027 5.59426 42.2058 5.65859C42.1089 5.72292 41.997 5.76204 41.8807 5.77231L37.3633 6.1802L42.1365 6.39045C42.2841 6.39752 42.4301 6.35788 42.5532 6.27731C42.6763 6.19675 42.7701 6.07947 42.8208 5.94261L44.5156 1.43066Z" fill="#F7DB5E"/>
<path d="M39.4421 14.7497L39.3398 15.3384C39.328 15.4061 39.3437 15.4757 39.3837 15.532C39.4236 15.5883 39.4844 15.6268 39.5529 15.6391C39.6104 15.6486 39.6694 15.6398 39.7214 15.6139L44.3965 13.1918C44.4343 13.1721 44.4764 13.1618 44.5191 13.1618C44.5618 13.1618 44.6039 13.1721 44.6417 13.1918L49.2998 15.6139C49.3617 15.6457 49.434 15.6521 49.5007 15.6316C49.5674 15.6112 49.6231 15.5655 49.6558 15.5045C49.6829 15.4536 49.6927 15.3953 49.6835 15.3384L48.7967 10.2168C48.7893 10.1751 48.7923 10.1324 48.8053 10.0921C48.8183 10.0518 48.8409 10.0153 48.8713 9.98548L52.6489 6.35447C52.6736 6.33041 52.6932 6.30176 52.7066 6.27018C52.72 6.2386 52.7269 6.20472 52.7269 6.1705C52.7269 6.13627 52.72 6.10239 52.7066 6.07081C52.6932 6.03923 52.6736 6.01058 52.6489 5.98653C52.608 5.94595 52.5549 5.91942 52.4976 5.91084L50.7494 5.66064C47.9269 10.6625 43.5949 13.2969 39.4421 14.7497Z" fill="#EDBD31"/>
<path d="M62.5484 0.352067L64.8935 5.01751C64.9126 5.05517 64.9406 5.08778 64.9751 5.11265C65.0095 5.13751 65.0495 5.15391 65.0917 5.16048L70.3126 5.90686C70.3816 5.91727 70.4437 5.95392 70.4855 6.00896C70.5274 6.06399 70.5457 6.13302 70.5365 6.20121C70.5278 6.2578 70.5009 6.31012 70.4597 6.35048L66.6821 9.9815C66.6514 10.0107 66.6283 10.0468 66.615 10.0867C66.6016 10.1266 66.5983 10.1692 66.6054 10.2107L67.4986 15.3387C67.5098 15.4063 67.4938 15.4756 67.454 15.5318C67.4142 15.5879 67.3537 15.6265 67.2854 15.6393C67.2278 15.6483 67.1687 15.6388 67.117 15.612L62.4482 13.192C62.4105 13.1723 62.3684 13.162 62.3257 13.162C62.2829 13.162 62.2409 13.1723 62.2031 13.192L57.5343 15.612C57.4909 15.6348 57.4419 15.6452 57.3928 15.6418C57.3437 15.6385 57.2966 15.6216 57.2568 15.5931C57.217 15.5645 57.1862 15.5256 57.1677 15.4806C57.1493 15.4356 57.1441 15.3864 57.1527 15.3387L58.0396 10.217C58.0471 10.1757 58.0442 10.1332 58.0312 10.0932C58.0182 10.0533 57.9955 10.0171 57.965 9.9878L54.1873 6.3568C54.1626 6.33274 54.143 6.30409 54.1296 6.27251C54.1163 6.24093 54.1094 6.20705 54.1094 6.17283C54.1094 6.1386 54.1163 6.10471 54.1296 6.07313C54.143 6.04155 54.1626 6.01291 54.1873 5.98886C54.2282 5.94828 54.2813 5.92175 54.3387 5.91317L59.5574 5.16467C59.5997 5.159 59.6398 5.1432 59.6744 5.11864C59.709 5.09408 59.7369 5.06151 59.7557 5.02381L62.1007 0.358368C62.1161 0.327731 62.1375 0.30041 62.1637 0.277984C62.1899 0.255559 62.2203 0.238473 62.2532 0.227719C62.2861 0.216965 62.3209 0.212759 62.3554 0.215335C62.39 0.217912 62.4237 0.227223 62.4546 0.242733C62.4958 0.269654 62.5283 0.30758 62.5484 0.352067Z" fill="#F3CC30"/>
<path d="M62.3047 1.43066L60.2262 5.40437C60.172 5.50673 60.0927 5.59406 59.9955 5.65834C59.8983 5.72263 59.7863 5.76181 59.6697 5.77231L55.1523 6.1802L59.9256 6.39045C60.0731 6.39752 60.2191 6.35788 60.3423 6.27731C60.4654 6.19675 60.5591 6.07947 60.6099 5.94261L62.3047 1.43066Z" fill="#F7DB5E"/>
<path d="M57.2411 14.75L57.1366 15.3387C57.1248 15.4064 57.1406 15.4759 57.1805 15.5322C57.2204 15.5885 57.2813 15.627 57.3498 15.6393C57.4072 15.649 57.4663 15.6402 57.5182 15.6141L62.187 13.192C62.2248 13.1723 62.2668 13.162 62.3096 13.162C62.3523 13.162 62.3944 13.1723 62.4322 13.192L67.1009 15.6141C67.163 15.6454 67.235 15.6515 67.3015 15.6311C67.3681 15.6106 67.4239 15.5653 67.4569 15.5048C67.4834 15.4536 67.4923 15.3953 67.4825 15.3387L66.5935 10.217C66.5862 10.1754 66.5892 10.1326 66.6021 10.0924C66.6151 10.0521 66.6378 10.0155 66.6681 9.98573L70.4458 6.35471C70.4705 6.33066 70.4901 6.302 70.5035 6.27043C70.5168 6.23885 70.5237 6.20497 70.5237 6.17074C70.5237 6.13652 70.5168 6.10264 70.5035 6.07106C70.4901 6.03948 70.4705 6.01083 70.4458 5.98677C70.4049 5.9462 70.3518 5.91967 70.2944 5.91109L68.5463 5.66089C65.7237 10.6627 61.3939 13.2972 57.2411 14.75Z" fill="#EDBD31"/>
<path d="M81.8008 5.46533V5.46436C81.8922 5.64715 82.0263 5.80392 82.1904 5.92236C82.3553 6.04124 82.5461 6.1185 82.7461 6.14795L82.75 6.14893L86.4551 6.6792L83.7822 9.26123C83.6709 9.36806 83.5801 9.49448 83.5146 9.63428L83.458 9.77783C83.3947 9.97227 83.3808 10.1789 83.416 10.3804L83.415 10.3813L84.0518 14.0435L80.7012 12.3062C80.5662 12.236 80.4204 12.1905 80.2705 12.1724L80.1191 12.1636C79.9669 12.1636 79.8159 12.1911 79.6738 12.2446L79.5371 12.3052L76.1797 14.0444L76.8115 10.3862C76.8377 10.2359 76.8373 10.0828 76.8086 9.93408L76.7695 9.78369L76.7129 9.64014C76.6474 9.50044 76.5556 9.37385 76.4443 9.26709L73.7598 6.68701L77.4873 6.15186C77.6862 6.12402 77.8768 6.04948 78.042 5.93213C78.2092 5.81326 78.3443 5.65429 78.4365 5.46924L78.4375 5.47021L80.1162 2.11377L81.8008 5.46533Z" stroke="#D6D6D6" stroke-width="1.99658"/>
<mask id="path-14-inside-1_3645_7110" fill="white">
<path d="M80.1112 1.43042L78.0305 5.40413C77.9765 5.50661 77.8973 5.59404 77.8 5.65834C77.7028 5.72265 77.5907 5.76175 77.4741 5.77207L72.9609 6.17995L77.732 6.3902C77.8798 6.39707 78.026 6.35737 78.1494 6.27686C78.2728 6.19635 78.3671 6.0792 78.4185 5.94237L80.1112 1.43042Z"/>
</mask>
<path d="M80.1112 1.43042L81.9805 2.13173L78.3424 0.504267L80.1112 1.43042ZM78.0305 5.40413L79.7972 6.3343L79.7993 6.33028L78.0305 5.40413ZM77.4741 5.77207L77.2982 3.78324L77.2944 3.78359L77.4741 5.77207ZM72.9609 6.17995L72.7812 4.19147L72.873 8.1746L72.9609 6.17995ZM77.732 6.3902L77.8246 4.39576L77.8199 4.39555L77.732 6.3902ZM78.4185 5.94237L80.2875 6.64471L80.2878 6.64367L78.4185 5.94237ZM80.1112 1.43042L78.3424 0.504267L76.2617 4.47798L78.0305 5.40413L79.7993 6.33028L81.88 2.35657L80.1112 1.43042ZM78.0305 5.40413L76.2638 4.47396C76.3674 4.27723 76.5179 4.11257 76.6988 3.99295L77.8 5.65834L78.9013 7.32374C79.2767 7.07551 79.5857 6.73598 79.7972 6.3343L78.0305 5.40413ZM77.8 5.65834L76.6988 3.99295C76.8796 3.87337 77.0858 3.80203 77.2982 3.78325L77.4741 5.77207L77.65 7.76089C78.0956 7.72148 78.526 7.57193 78.9013 7.32374L77.8 5.65834ZM77.4741 5.77207L77.2944 3.78359L72.7812 4.19147L72.9609 6.17995L73.1407 8.16843L77.6538 7.76055L77.4741 5.77207ZM72.9609 6.17995L72.873 8.1746L77.6441 8.38485L77.732 6.3902L77.8199 4.39555L73.0488 4.1853L72.9609 6.17995ZM77.732 6.3902L77.6394 8.38464C78.2039 8.41085 78.7644 8.25955 79.2403 7.94906L78.1494 6.27686L77.0585 4.60466C77.2876 4.4552 77.5558 4.38328 77.8246 4.39577L77.732 6.3902ZM78.1494 6.27686L79.2403 7.94906C79.7167 7.6383 80.0853 7.18277 80.2875 6.64471L78.4185 5.94237L76.5495 5.24003C76.6489 4.97563 76.829 4.75441 77.0585 4.60466L78.1494 6.27686ZM78.4185 5.94237L80.2878 6.64367L81.9805 2.13173L80.1112 1.43042L78.2418 0.729114L76.5491 5.24106L78.4185 5.94237Z" fill="#D6D6D6" mask="url(#path-14-inside-1_3645_7110)"/>
<path d="M84.043 14.0425L81.3604 12.6479C82.0952 12.126 82.8102 11.5454 83.4971 10.9009L84.043 14.0425Z" stroke="#D6D6D6" stroke-width="1.99658"/>
</svg>
