<svg width="17" height="17" viewBox="0 0 17 17" fill="none" xmlns="http://www.w3.org/2000/svg">
<path d="M7.68704 2.45528C8.13391 2.07317 8.86574 2.07317 9.31909 2.45528L10.3424 3.33607C10.5366 3.50446 10.8993 3.64046 11.1584 3.64046H12.2594C12.9459 3.64046 13.5093 4.20391 13.5093 4.8904V5.99139C13.5093 6.24397 13.6453 6.61312 13.8137 6.80741L14.6945 7.83068C15.0766 8.27755 15.0766 9.00938 14.6945 9.46273L13.8137 10.486C13.6453 10.6803 13.5093 11.043 13.5093 11.302V12.403C13.5093 13.0895 12.9459 13.653 12.2594 13.653H11.1584C10.9058 13.653 10.5366 13.789 10.3424 13.9573L9.31909 14.8381C8.87221 15.2202 8.14038 15.2202 7.68704 14.8381L6.66377 13.9573C6.46948 13.789 6.1068 13.653 5.84774 13.653H4.72733C4.04083 13.653 3.47739 13.0895 3.47739 12.403V11.2955C3.47739 11.043 3.34138 10.6803 3.17947 10.486L2.30516 9.45625C1.92953 9.00938 1.92953 8.28403 2.30516 7.83716L3.17947 6.80741C3.34138 6.61312 3.47739 6.25044 3.47739 5.99786V4.88393C3.47739 4.19743 4.04083 3.63398 4.72733 3.63398H5.84774C6.10032 3.63398 6.46948 3.49798 6.66377 3.32959L7.68704 2.45528Z" fill="url(#paint0_linear_3645_7105)"/>
<path d="M7.71546 10.6927C7.58593 10.6927 7.46288 10.6408 7.37221 10.5502L5.80492 8.98289C5.61711 8.79508 5.61711 8.48421 5.80492 8.2964C5.99274 8.10858 6.30361 8.10858 6.49142 8.2964L7.71546 9.52043L10.5003 6.73559C10.6881 6.54777 10.999 6.54777 11.1868 6.73559C11.3746 6.9234 11.3746 7.23427 11.1868 7.42208L8.05871 10.5502C7.96804 10.6408 7.84499 10.6927 7.71546 10.6927Z" fill="black"/>
<defs>
<linearGradient id="paint0_linear_3645_7105" x1="2.02344" y1="12.1752" x2="13.8614" y2="3.57676" gradientUnits="userSpaceOnUse">
<stop offset="0.226344" stop-color="#1F83DA"/>
<stop offset="0.882107" stop-color="#BCE6FC"/>
</linearGradient>
</defs>
</svg>
