<svg width="14" height="16" viewBox="0 0 14 16" fill="none" xmlns="http://www.w3.org/2000/svg">
<path d="M3.59663 2.39843C3.59663 2.02015 3.59663 1.65796 3.59663 1.28773C3.59633 1.18911 3.61241 1.09117 3.6442 0.997988C3.69458 0.869682 3.78624 0.762395 3.90429 0.69371C4.02234 0.625024 4.15981 0.599007 4.29433 0.619728C4.42902 0.653883 4.54942 0.730891 4.63787 0.839512C4.72633 0.948132 4.77822 1.08266 4.78593 1.22337V2.39843H10.1219V2.22139C10.1219 1.8914 10.1219 1.56132 10.1219 1.23133C10.1219 1.07123 10.1846 0.91774 10.2961 0.804535C10.4076 0.69133 10.5589 0.627686 10.7166 0.627686C10.8743 0.627686 11.0255 0.69133 11.1371 0.804535C11.2486 0.91774 11.3112 1.07123 11.3112 1.23133V2.31797C11.3112 2.41455 11.3112 2.46281 11.4302 2.48696C12.0877 2.65214 12.6698 3.04087 13.0795 3.58853C13.4891 4.13619 13.7018 4.80975 13.6819 5.49712V5.99613H0.663007C0.579974 5.55779 0.593494 5.1062 0.702592 4.67379C0.81169 4.24138 1.01367 3.83885 1.29405 3.495C1.57443 3.15114 1.92627 2.87452 2.32436 2.68493C2.72244 2.49534 3.15691 2.39753 3.59663 2.39843Z" fill="white"/>
<path d="M0.641992 7.53516H13.6829C13.6829 7.59059 13.6829 7.63806 13.6829 7.68557C13.6829 9.21395 13.6829 10.7424 13.6829 12.2707C13.6926 12.9565 13.4591 13.6235 13.0239 14.1539C12.5886 14.6843 11.9797 15.044 11.3046 15.1691C11.0928 15.2076 10.8778 15.2261 10.6625 15.2245C8.31592 15.2245 5.96405 15.2245 3.60691 15.2245C3.2111 15.2354 2.81723 15.1657 2.44927 15.0196C2.0813 14.8735 1.74695 14.6541 1.46659 14.3748C1.18623 14.0955 0.965722 13.7621 0.818505 13.3949C0.671288 13.0277 0.600441 12.6344 0.610275 12.239C0.610275 10.7265 0.610275 9.20603 0.610275 7.68557L0.641992 7.53516ZM10.7338 11.6768C10.6159 11.6752 10.5002 11.7087 10.4014 11.773C10.3026 11.8373 10.2251 11.9295 10.1789 12.0379C10.1327 12.1462 10.1198 12.266 10.1418 12.3817C10.1638 12.4974 10.2198 12.604 10.3027 12.6879C10.3855 12.7717 10.4914 12.829 10.607 12.8526C10.7225 12.8762 10.8425 12.8649 10.9516 12.8202C11.0607 12.7755 11.154 12.6994 11.2197 12.6015C11.2854 12.5037 11.3205 12.3885 11.3205 12.2707C11.325 12.1922 11.313 12.1137 11.2852 12.0401C11.2574 11.9665 11.2145 11.8996 11.1592 11.8437C11.1039 11.7877 11.0375 11.7439 10.9642 11.7152C10.891 11.6865 10.8125 11.6734 10.7338 11.6768ZM3.599 10.489C3.67732 10.4912 3.75527 10.4773 3.82798 10.4482C3.9007 10.419 3.96662 10.3752 4.02165 10.3195C4.07668 10.2638 4.11965 10.1973 4.14786 10.1243C4.17608 10.0513 4.18893 9.97322 4.18563 9.89502C4.18909 9.81647 4.176 9.73805 4.14724 9.66485C4.11847 9.59166 4.07466 9.52529 4.01862 9.47007C3.96259 9.41484 3.89561 9.37195 3.82196 9.34421C3.74831 9.31646 3.66964 9.30451 3.59106 9.30902C3.51146 9.3031 3.43152 9.31442 3.3567 9.34218C3.28188 9.36993 3.21393 9.4135 3.1575 9.46987C3.10106 9.52625 3.05747 9.59408 3.02968 9.66882C3.0019 9.74356 2.99057 9.82344 2.99649 9.90295C2.99267 9.98366 3.00631 10.0642 3.03648 10.1392C3.06665 10.2142 3.11265 10.2818 3.17133 10.3374C3.23002 10.393 3.3 10.4353 3.37654 10.4615C3.45308 10.4877 3.53435 10.497 3.61484 10.489H3.599ZM5.97728 10.489C6.05591 10.4924 6.1344 10.4793 6.20767 10.4506C6.28094 10.4218 6.34735 10.3781 6.40264 10.3221C6.45792 10.2661 6.50083 10.1992 6.52861 10.1257C6.55639 10.0521 6.56842 9.97352 6.56391 9.89502C6.56852 9.81686 6.55651 9.73862 6.52866 9.66543C6.50081 9.59225 6.45775 9.52572 6.40232 9.47036C6.3469 9.41499 6.28038 9.37202 6.20711 9.34421C6.13384 9.31639 6.05552 9.30441 5.97728 9.30902C5.89735 9.30324 5.81711 9.31458 5.74192 9.34227C5.66674 9.36997 5.59833 9.41336 5.54129 9.46958C5.48425 9.52581 5.4399 9.5936 5.41118 9.66833C5.38246 9.74307 5.37005 9.82304 5.37477 9.90295C5.37236 9.9826 5.3867 10.0619 5.41684 10.1356C5.44699 10.2094 5.49227 10.2761 5.54978 10.3313C5.6073 10.3865 5.67576 10.429 5.75075 10.4562C5.82575 10.4833 5.90561 10.4945 5.98519 10.489H5.97728ZM3.599 11.6768C3.48107 11.6768 3.36581 11.7118 3.26786 11.7774C3.16992 11.8431 3.09372 11.9363 3.04897 12.0453C3.00421 12.1543 2.99291 12.2741 3.0165 12.3895C3.04009 12.505 3.0975 12.6107 3.18145 12.6935C3.26539 12.7762 3.37207 12.8322 3.48792 12.8542C3.60378 12.8762 3.72358 12.8633 3.83207 12.8171C3.94057 12.7709 4.03286 12.6936 4.09723 12.5949C4.1616 12.4962 4.19514 12.3806 4.19357 12.2628C4.19693 12.185 4.18407 12.1073 4.15578 12.0347C4.12749 11.9621 4.08438 11.8961 4.02922 11.841C3.97406 11.7859 3.90804 11.7428 3.83534 11.7145C3.76264 11.6863 3.68484 11.6734 3.60691 11.6768H3.599ZM8.35556 9.30109C8.2766 9.29636 8.19754 9.30857 8.12369 9.33686C8.04983 9.36515 7.98289 9.4088 7.92734 9.46504C7.87178 9.52128 7.8289 9.58877 7.80158 9.66292C7.77426 9.73707 7.76311 9.81622 7.7689 9.89502C7.7689 10.0525 7.83153 10.2036 7.94304 10.3149C8.05454 10.4263 8.20578 10.489 8.36347 10.489C8.52116 10.489 8.67239 10.4263 8.78389 10.3149C8.8954 10.2036 8.95804 10.0525 8.95804 9.89502C8.96306 9.8147 8.95053 9.73424 8.92129 9.65925C8.89205 9.58426 8.8468 9.51655 8.78871 9.46079C8.73062 9.40502 8.66108 9.36258 8.58491 9.33638C8.50873 9.31017 8.42776 9.30081 8.34762 9.30902L8.35556 9.30109ZM10.7338 10.481C10.8518 10.481 10.967 10.446 11.065 10.3804C11.1629 10.3148 11.2391 10.2215 11.2839 10.1125C11.3286 10.0035 11.3399 9.88371 11.3163 9.76829C11.2927 9.65287 11.2353 9.54701 11.1514 9.46427C11.0674 9.38153 10.9607 9.32562 10.8449 9.30361C10.729 9.28159 10.6093 9.29446 10.5008 9.34063C10.3923 9.3868 10.2999 9.46416 10.2356 9.56287C10.1712 9.66158 10.1377 9.77723 10.1393 9.89502C10.1348 9.97352 10.1468 10.0521 10.1745 10.1257C10.2023 10.1992 10.2453 10.2661 10.3005 10.3221C10.3558 10.3781 10.4222 10.4218 10.4955 10.4506C10.5688 10.4793 10.6473 10.4924 10.7259 10.489L10.7338 10.481ZM5.97728 12.8567C6.12212 12.84 6.25574 12.7705 6.35273 12.6618C6.44971 12.553 6.50331 12.4124 6.50331 12.2668C6.50331 12.1211 6.44971 11.9806 6.35273 11.8718C6.25574 11.763 6.12212 11.6936 5.97728 11.6768C5.89397 11.6672 5.80955 11.6752 5.72959 11.7004C5.64962 11.7256 5.5759 11.7675 5.51328 11.8233C5.45065 11.879 5.40052 11.9473 5.36621 12.0238C5.33189 12.1002 5.31417 12.183 5.31417 12.2668C5.31417 12.3506 5.33189 12.4334 5.36621 12.5098C5.40052 12.5862 5.45065 12.6546 5.51328 12.7103C5.5759 12.766 5.64962 12.8078 5.72959 12.8331C5.80955 12.8583 5.89397 12.8664 5.97728 12.8567ZM8.35556 12.8567C8.43886 12.8664 8.52325 12.8583 8.60322 12.8331C8.68319 12.8078 8.7569 12.766 8.81953 12.7103C8.88216 12.6546 8.93228 12.5862 8.9666 12.5098C9.00092 12.4334 9.01866 12.3506 9.01866 12.2668C9.01866 12.183 9.00092 12.1002 8.9666 12.0238C8.93228 11.9473 8.88216 11.879 8.81953 11.8233C8.7569 11.7675 8.68319 11.7256 8.60322 11.7004C8.52325 11.6752 8.43886 11.6672 8.35556 11.6768C8.27225 11.6672 8.18783 11.6752 8.10787 11.7004C8.0279 11.7256 7.95418 11.7675 7.89156 11.8233C7.82893 11.879 7.7788 11.9473 7.74449 12.0238C7.71017 12.1002 7.69245 12.183 7.69245 12.2668C7.69245 12.3506 7.71017 12.4334 7.74449 12.5098C7.7788 12.5862 7.82893 12.6546 7.89156 12.7103C7.95418 12.766 8.0279 12.8078 8.10787 12.8331C8.18783 12.8583 8.27225 12.8664 8.35556 12.8567Z" fill="white"/>
</svg>
