<svg width="17" height="17" viewBox="0 0 17 17" fill="none" xmlns="http://www.w3.org/2000/svg">
<g clip-path="url(#clip0_2005_3696)">
<path d="M16.9947 4.35901V12.6582C16.967 12.8307 16.9481 13.0069 16.9104 13.1781C16.4774 15.1041 15.3119 16.3389 13.4089 16.8676C13.1572 16.9356 12.9055 16.9608 12.6538 17.0061H4.35702C4.30416 16.996 4.25005 16.9834 4.19593 16.9772C3.73264 16.9342 3.27969 16.8147 2.85551 16.6234C1.03053 15.7599 0.0475535 14.3148 0.0186055 12.2932C-0.0166355 9.7756 0.00854464 7.24794 0.0110619 4.72532C-0.00132383 3.91851 0.204821 3.12338 0.60764 2.42425C1.54404 0.836912 2.94739 0.0237318 4.78999 0.0136614C7.26818 -0.000185281 9.74511 0.00736748 12.2233 0.0136614C12.5439 0.00841978 12.8642 0.0375374 13.1786 0.100517C15.103 0.524731 16.3327 1.69541 16.8613 3.59493C16.928 3.83661 16.9532 4.09719 16.9947 4.35901ZM15.4844 8.52562C15.4844 7.292 15.4844 6.05838 15.4844 4.82477C15.4936 4.43726 15.4362 4.05105 15.3145 3.68304C14.8324 2.3311 13.6707 1.51918 12.1994 1.51792C9.73379 1.51792 7.26818 1.51037 4.80131 1.52421C4.42078 1.52255 4.04234 1.58075 3.67989 1.69667C2.32059 2.15361 1.51005 3.3331 1.50879 4.79959C1.50879 7.27186 1.50124 9.74413 1.50879 12.2164C1.50752 12.5918 1.56486 12.9651 1.67872 13.3229C2.13181 14.6761 3.30484 15.4943 4.7623 15.4981C7.25015 15.5048 9.7384 15.5048 12.2271 15.4981C12.7465 15.5113 13.2611 15.3957 13.7249 15.1615C14.1888 14.9274 14.5874 14.582 14.8853 14.1562C15.2912 13.5897 15.4999 12.9055 15.4793 12.2088C15.4827 10.9761 15.4869 9.74623 15.4919 8.51933L15.4844 8.52562Z" fill="#7DC5FF"/>
<path d="M12.8824 8.51336C12.8809 9.37929 12.6227 10.2254 12.1406 10.9446C11.6584 11.6638 10.9739 12.224 10.1735 12.5542C9.37315 12.8844 8.49285 12.9699 7.6439 12.7999C6.79494 12.6299 6.01546 12.2119 5.40394 11.5989C4.79243 10.9859 4.37634 10.2053 4.20828 9.35585C4.04022 8.50639 4.12774 7.62616 4.45976 6.82642C4.79178 6.02668 5.3534 5.34335 6.07364 4.86277C6.79387 4.3822 7.6404 4.12597 8.50621 4.12647C9.66685 4.13211 10.7782 4.59643 11.5979 5.4182C12.4177 6.23997 12.8794 7.35254 12.8824 8.51336ZM8.50871 5.63702C7.94151 5.63602 7.38676 5.80324 6.91456 6.11753C6.44236 6.43182 6.07393 6.87906 5.85584 7.40274C5.63775 7.92641 5.5798 8.503 5.68929 9.05961C5.79879 9.61623 6.07082 10.1279 6.47101 10.5299C6.8712 10.9319 7.38158 11.2062 7.93762 11.3182C8.49367 11.4301 9.07042 11.3747 9.59497 11.1589C10.1195 10.943 10.5683 10.5765 10.8846 10.1056C11.2009 9.63475 11.3705 9.08064 11.372 8.51336C11.374 7.75172 11.0735 7.02047 10.5366 6.48038C9.99966 5.94029 9.27024 5.63557 8.50871 5.63324V5.63702Z" fill="#7DC5FF"/>
<path d="M13.066 2.84961C13.2844 2.85011 13.4976 2.91544 13.6788 3.0373C13.86 3.15917 14.0009 3.33208 14.0837 3.53413C14.1665 3.73618 14.1874 3.95827 14.1439 4.17224C14.1003 4.38621 13.9942 4.58244 13.8391 4.73604C13.6839 4.88965 13.4866 4.99372 13.2722 5.03507C13.0579 5.07641 12.836 5.05317 12.6349 4.96828C12.4337 4.88339 12.2623 4.74069 12.1423 4.55825C12.0223 4.37581 11.9592 4.16185 11.961 3.9435C11.9653 3.65276 12.0834 3.3753 12.2901 3.17075C12.4967 2.9662 12.7753 2.8509 13.066 2.84961Z" fill="#7DC5FF"/>
</g>
<defs>
<clipPath id="clip0_2005_3696">
<rect width="17" height="17" fill="white"/>
</clipPath>
</defs>
</svg>
