<svg width="19" height="17" viewBox="0 0 19 17" fill="none" xmlns="http://www.w3.org/2000/svg">
<g clip-path="url(#clip0_2005_3700)">
<path d="M18.9993 1.31975C18.8888 1.85528 18.7748 2.39027 18.6678 2.92633C17.8555 7.01109 17.0432 11.0962 16.2309 15.1817C16.17 15.4862 16.115 15.7928 16.0416 16.0935C15.7676 17.2141 15.007 17.1465 14.4169 16.6919C13.2024 15.756 12.0023 14.7978 10.7962 13.8487C10.6169 13.7076 10.4321 13.5735 10.2596 13.4228C10.1605 13.3371 10.102 13.3478 10.0119 13.4399C9.31371 14.1633 8.6096 14.8804 7.90896 15.6017C7.70036 15.8146 7.46301 15.9482 7.14639 15.9354C7.16472 15.6427 7.18156 15.36 7.20039 15.0779C7.28265 13.8397 7.36242 12.6015 7.4526 11.3638C7.46434 11.2566 7.51062 11.1571 7.58341 11.0827C10.2053 8.54562 12.8295 6.01137 15.4559 3.47995C15.4881 3.44855 15.5313 3.42672 15.5501 3.3852C15.5922 3.2979 15.6224 3.20368 15.6571 3.11265C15.5669 3.0871 15.4683 3.02428 15.3876 3.04398C15.2384 3.08276 15.096 3.14711 14.9659 3.23455C11.6976 5.42669 8.43122 7.62238 5.16685 9.82162C5.11547 9.86036 5.05599 9.8849 4.99368 9.89307C4.93137 9.90124 4.86815 9.89279 4.8096 9.86846C3.44449 9.40693 2.07642 8.95551 0.711804 8.49132C0.53 8.4299 0.358409 8.33791 0.203419 8.21877C-0.0443316 8.02447 -0.0775333 7.74446 0.144451 7.52088C0.330463 7.32833 0.548015 7.17438 0.786129 7.0668C2.14529 6.48922 3.51139 5.93347 4.87847 5.37186C9.14342 3.618 13.408 1.86628 17.6723 0.116686C17.8095 0.0578308 17.9538 0.0205377 18.1009 0.00596046C18.5469 -0.0297057 18.8442 0.206651 18.9591 0.673506C18.97 0.718222 18.9859 0.760806 18.9993 0.804457V1.31975Z" fill="#7DC5FF"/>
</g>
<defs>
<clipPath id="clip0_2005_3700">
<rect width="19" height="17" fill="white"/>
</clipPath>
</defs>
</svg>
