<svg width="16" height="16" viewBox="0 0 16 16" fill="none" xmlns="http://www.w3.org/2000/svg">
<path d="M7.95839 1.49402C4.34808 1.49402 1.41797 4.42413 1.41797 8.03444C1.41797 11.6447 4.34808 14.5749 7.95839 14.5749C11.5687 14.5749 14.4988 11.6447 14.4988 8.03444C14.4988 4.42413 11.5687 1.49402 7.95839 1.49402ZM10.5942 6.85717L7.53979 9.90498C7.44822 10.0031 7.32396 10.0489 7.19315 10.0489C7.06888 10.0489 6.94461 10.0031 6.84651 9.90498L5.3226 8.3811C5.13293 8.19142 5.13293 7.87745 5.3226 7.68777C5.51227 7.4981 5.82621 7.4981 6.01588 7.68777L7.19315 8.86508L9.90089 6.16389C10.0906 5.96767 10.4045 5.96767 10.5942 6.16389C10.7838 6.35356 10.7838 6.66096 10.5942 6.85717Z" fill="white"/>
</svg>
