<svg width="77" height="14" viewBox="0 0 77 14" fill="none" xmlns="http://www.w3.org/2000/svg">
<path d="M7.79735 0.282852L9.83114 4.34755C9.84782 4.38037 9.87218 4.40878 9.90223 4.43044C9.93227 4.45211 9.96711 4.46639 10.0039 4.47211L14.5451 5.12239C14.6035 5.13355 14.6553 5.16638 14.6898 5.21409C14.7244 5.2618 14.7391 5.32077 14.7308 5.37884C14.7232 5.42814 14.6998 5.47373 14.664 5.50889L11.3876 8.67236C11.3608 8.69777 11.3408 8.72924 11.3291 8.76403C11.3175 8.79882 11.3146 8.83589 11.3207 8.87202L12.099 13.3397C12.1087 13.3986 12.0948 13.459 12.0601 13.5079C12.0254 13.5569 11.9727 13.5905 11.9132 13.6017C11.863 13.6095 11.8115 13.6012 11.7665 13.5778L7.69891 11.4695C7.666 11.4523 7.62933 11.4433 7.59211 11.4433C7.55488 11.4433 7.51822 11.4523 7.48531 11.4695L3.41772 13.5778C3.3799 13.5977 3.33718 13.6067 3.29443 13.6038C3.25168 13.6009 3.21062 13.5862 3.17595 13.5614C3.14128 13.5365 3.11438 13.5026 3.09834 13.4634C3.0823 13.4242 3.07777 13.3813 3.08525 13.3397L3.86162 8.87752C3.86818 8.84154 3.86567 8.80451 3.85434 8.7697C3.84301 8.73489 3.82319 8.70335 3.79662 8.67785L0.505393 5.51439C0.483885 5.49344 0.466811 5.46847 0.455156 5.44096C0.443502 5.41345 0.4375 5.38393 0.4375 5.35411C0.4375 5.32429 0.443502 5.29477 0.455156 5.26725C0.466811 5.23974 0.483885 5.21479 0.505393 5.19383C0.541049 5.15848 0.587277 5.13537 0.637264 5.12789L5.18406 4.47577C5.22084 4.47083 5.25583 4.45707 5.28595 4.43567C5.31607 4.41427 5.34039 4.38589 5.35679 4.35304L7.39059 0.288342C7.404 0.26165 7.42265 0.237847 7.44545 0.218309C7.46825 0.198771 7.49475 0.183885 7.52343 0.174516C7.5521 0.165146 7.58238 0.161482 7.6125 0.163727C7.64262 0.165972 7.67199 0.174084 7.69891 0.187597C7.74096 0.20849 7.77537 0.241786 7.79735 0.282852Z" fill="#F3CC30"/>
<path d="M7.59264 1.22266L5.78172 4.6847C5.73458 4.77387 5.66549 4.84996 5.5808 4.90597C5.4961 4.96197 5.39851 4.99611 5.29696 5.00526L1.35938 5.36062L5.51612 5.5438C5.64489 5.54978 5.77225 5.5152 5.87977 5.44505C5.98729 5.37491 6.06939 5.27284 6.11419 5.15363L7.59264 1.22266Z" fill="#F7DB5E"/>
<path d="M3.17589 12.8272L3.08488 13.3401C3.0782 13.3818 3.08332 13.4244 3.09968 13.4634C3.11604 13.5024 3.143 13.5361 3.17758 13.561C3.21216 13.5858 3.25303 13.6007 3.29567 13.6041C3.3383 13.6074 3.38105 13.5991 3.4192 13.58L7.48865 11.4699C7.52156 11.4527 7.55822 11.4437 7.59545 11.4437C7.63268 11.4437 7.66934 11.4527 7.70224 11.4699L11.7606 13.58C11.8146 13.6073 11.8774 13.6126 11.9353 13.5948C11.9933 13.577 12.0419 13.5375 12.0707 13.4848C12.0938 13.4402 12.1016 13.3894 12.093 13.3401L11.3241 8.87789C11.3176 8.84147 11.3203 8.80405 11.332 8.76891C11.3436 8.73377 11.3639 8.702 11.3909 8.6764L14.6803 5.51293C14.7018 5.49197 14.7189 5.46701 14.7305 5.4395C14.7422 5.41198 14.7482 5.38247 14.7482 5.35265C14.7482 5.32283 14.7422 5.29331 14.7305 5.2658C14.7189 5.23829 14.7018 5.21333 14.6803 5.19237C14.6446 5.15702 14.5984 5.1339 14.5484 5.12643L13.0254 4.90845C10.5663 9.26623 6.794 11.5614 3.17589 12.8272Z" fill="#EDBD31"/>
<path d="M23.307 0.282867L25.3408 4.34757C25.3572 4.38057 25.3815 4.40913 25.4116 4.43083C25.4417 4.45252 25.4767 4.4667 25.5135 4.47213L30.0603 5.12241C30.1206 5.13102 30.175 5.16284 30.2115 5.21091C30.2481 5.25897 30.2638 5.31937 30.2554 5.37886C30.2478 5.42816 30.2243 5.47374 30.1885 5.50891L26.8973 8.67238C26.8707 8.69788 26.8509 8.72941 26.8395 8.76423C26.8282 8.79904 26.8257 8.83605 26.8323 8.87204L27.6086 13.3397C27.6161 13.3813 27.6116 13.4242 27.5955 13.4634C27.5795 13.5026 27.5526 13.5365 27.5179 13.5614C27.4833 13.5862 27.4422 13.6009 27.3995 13.6038C27.3567 13.6068 27.314 13.5977 27.2762 13.5779L23.2086 11.4695C23.1757 11.4523 23.139 11.4434 23.1018 11.4434C23.0646 11.4434 23.0279 11.4523 22.995 11.4695L18.9274 13.5779C18.8895 13.5975 18.8467 13.6063 18.804 13.6033C18.7612 13.6003 18.7202 13.5857 18.6854 13.5609C18.6507 13.5362 18.6237 13.5024 18.6073 13.4633C18.591 13.4242 18.5861 13.3814 18.5931 13.3397L19.375 8.87754C19.3816 8.84155 19.3791 8.80453 19.3677 8.76972C19.3564 8.7349 19.3366 8.70337 19.31 8.67787L16.0132 5.50891C15.9917 5.48795 15.9746 5.463 15.963 5.43549C15.9513 5.40797 15.9453 5.37844 15.9453 5.34863C15.9453 5.31881 15.9513 5.28929 15.963 5.26178C15.9746 5.23426 15.9917 5.2093 16.0132 5.18835C16.0489 5.153 16.0951 5.12988 16.1451 5.12241L20.6919 4.47029C20.7287 4.46551 20.7638 4.4518 20.7939 4.43038C20.824 4.40896 20.8483 4.38051 20.8646 4.34757L22.904 0.282867C22.9235 0.245596 22.9531 0.214343 22.9895 0.19253C23.0258 0.170718 23.0676 0.15918 23.1101 0.15918C23.1527 0.15918 23.1944 0.170718 23.2308 0.19253C23.2672 0.214343 23.2967 0.245596 23.3163 0.282867H23.307Z" fill="#F3CC30"/>
<path d="M23.1025 1.22266L21.2897 4.6847C21.2427 4.77398 21.1737 4.85015 21.0889 4.90618C21.0042 4.9622 20.9066 4.99627 20.805 5.00526L16.8711 5.36062L21.0278 5.5438C21.1566 5.54978 21.284 5.5152 21.3915 5.44505C21.499 5.37491 21.5811 5.27284 21.6259 5.15363L23.1025 1.22266Z" fill="#F7DB5E"/>
<path d="M18.6822 12.8272L18.5931 13.3401C18.5859 13.3817 18.5907 13.4244 18.6067 13.4635C18.6228 13.5026 18.6496 13.5365 18.6841 13.5614C18.7187 13.5863 18.7595 13.6012 18.8022 13.6045C18.8448 13.6078 18.8875 13.5994 18.9256 13.58L22.9932 11.4699C23.0261 11.4527 23.0627 11.4437 23.0999 11.4437C23.1372 11.4437 23.1738 11.4527 23.2067 11.4699L27.2743 13.58C27.3284 13.6073 27.3911 13.6126 27.4491 13.5948C27.5071 13.577 27.5557 13.5375 27.5845 13.4848C27.6085 13.4405 27.6164 13.3894 27.6068 13.3401L26.8304 8.87789C26.8244 8.84148 26.8274 8.80418 26.839 8.76912C26.8506 8.73406 26.8706 8.70227 26.8973 8.6764L30.1885 5.51293C30.2311 5.47013 30.2549 5.41258 30.2549 5.35265C30.2549 5.29272 30.2311 5.23517 30.1885 5.19237C30.1529 5.15702 30.1066 5.1339 30.0566 5.12643L28.5336 4.90845C26.0745 9.26623 22.3004 11.5614 18.6822 12.8272Z" fill="#EDBD31"/>
<path d="M38.8122 0.28277L40.8553 4.34747C40.8719 4.38028 40.8963 4.4087 40.9264 4.43036C40.9564 4.45202 40.9913 4.46631 41.028 4.47203L45.5618 5.12231C45.6221 5.13093 45.6765 5.16275 45.713 5.21081C45.7496 5.25887 45.7653 5.31927 45.7568 5.37876C45.75 5.42831 45.7265 5.47413 45.69 5.50881L42.4043 8.67228C42.3771 8.6974 42.3568 8.72883 42.3451 8.76371C42.3334 8.79859 42.3308 8.8358 42.3374 8.87194L43.1138 13.3396C43.1213 13.3812 43.1168 13.4241 43.1007 13.4633C43.0847 13.5025 43.0578 13.5364 43.0231 13.5613C42.9884 13.5861 42.9474 13.6008 42.9046 13.6037C42.8619 13.6067 42.8192 13.5976 42.7814 13.5778L38.7138 11.4694C38.6808 11.4522 38.6442 11.4433 38.607 11.4433C38.5697 11.4433 38.5331 11.4522 38.5002 11.4694L34.4326 13.5778C34.4059 13.5918 34.3767 13.6004 34.3466 13.6032C34.3165 13.606 34.2862 13.6029 34.2573 13.594C34.2285 13.5851 34.2017 13.5707 34.1785 13.5516C34.1554 13.5325 34.1363 13.509 34.1224 13.4825C34.0984 13.4389 34.0905 13.3884 34.1001 13.3396L34.8765 8.87744C34.8826 8.8413 34.8798 8.80423 34.8681 8.76944C34.8564 8.73464 34.8364 8.70318 34.8096 8.67777L31.5202 5.50881C31.4773 5.46624 31.4531 5.40861 31.4531 5.34853C31.4531 5.28845 31.4773 5.23082 31.5202 5.18825C31.5559 5.1529 31.6021 5.12978 31.6521 5.12231L36.2008 4.4702C36.2375 4.46526 36.2725 4.45148 36.3026 4.43008C36.3328 4.40868 36.3571 4.38032 36.3735 4.34747L38.4166 0.28277C38.4359 0.245431 38.4652 0.214074 38.5014 0.192176C38.5377 0.170279 38.5793 0.158691 38.6218 0.158691C38.6643 0.158691 38.706 0.170279 38.7422 0.192176C38.7784 0.214074 38.8078 0.245431 38.8271 0.28277H38.8122Z" fill="#F3CC30"/>
<path d="M38.6064 1.22314L36.7936 4.68519C36.7471 4.77443 36.6784 4.85062 36.5939 4.90667C36.5095 4.96271 36.4121 4.99679 36.3107 5.00575L32.375 5.36111L36.5336 5.54429C36.6622 5.55045 36.7894 5.51591 36.8966 5.44572C37.0039 5.37553 37.0856 5.27335 37.1298 5.15412L38.6064 1.22314Z" fill="#F7DB5E"/>
<path d="M34.1862 12.8272L34.0971 13.3401C34.0868 13.3991 34.1005 13.4597 34.1353 13.5087C34.1701 13.5578 34.2231 13.5913 34.2828 13.602C34.3328 13.6103 34.3843 13.6026 34.4295 13.58L38.5027 11.4699C38.5356 11.4527 38.5723 11.4437 38.6095 11.4437C38.6467 11.4437 38.6834 11.4527 38.7163 11.4699L42.7746 13.58C42.8286 13.6078 42.8915 13.6134 42.9496 13.5955C43.0078 13.5777 43.0563 13.5379 43.0848 13.4848C43.1084 13.4404 43.1169 13.3896 43.1089 13.3401L42.3363 8.87789C42.3299 8.84163 42.3325 8.80437 42.3438 8.7693C42.3551 8.73422 42.3748 8.70236 42.4013 8.6764L45.6925 5.51293C45.714 5.49197 45.7311 5.46701 45.7427 5.4395C45.7544 5.41198 45.7604 5.38247 45.7604 5.35265C45.7604 5.32283 45.7544 5.29331 45.7427 5.2658C45.7311 5.23829 45.714 5.21333 45.6925 5.19237C45.6569 5.15702 45.6106 5.1339 45.5606 5.12643L44.0376 4.90845C41.5785 9.26623 37.8043 11.5614 34.1862 12.8272Z" fill="#EDBD31"/>
<path d="M54.3212 0.283097L56.3643 4.3478C56.3809 4.38061 56.4053 4.40903 56.4353 4.43069C56.4654 4.45235 56.5002 4.46664 56.537 4.47236L61.0856 5.12263C61.1457 5.1317 61.1998 5.16364 61.2362 5.21158C61.2727 5.25953 61.2886 5.31967 61.2807 5.37909C61.2731 5.42839 61.2496 5.47397 61.2138 5.50914L57.9226 8.67261C57.8958 8.69802 57.8757 8.72948 57.8641 8.76428C57.8524 8.79907 57.8495 8.83613 57.8557 8.87227L58.6339 13.34C58.6437 13.3989 58.6298 13.4593 58.5951 13.5082C58.5604 13.5571 58.5077 13.5907 58.4482 13.6019C58.398 13.6098 58.3465 13.6014 58.3015 13.5781L54.2339 11.4697C54.201 11.4526 54.1643 11.4436 54.1271 11.4436C54.0898 11.4436 54.0532 11.4526 54.0203 11.4697L49.9527 13.5781C49.9149 13.598 49.8722 13.607 49.8294 13.6041C49.7866 13.6012 49.7456 13.5864 49.7109 13.5616C49.6762 13.5368 49.6494 13.5028 49.6333 13.4636C49.6173 13.4244 49.6127 13.3816 49.6202 13.34L50.3929 8.87777C50.3994 8.84178 50.3969 8.80476 50.3856 8.76994C50.3743 8.73513 50.3544 8.7036 50.3279 8.6781L47.0366 5.51464C47.0151 5.49368 46.9981 5.46872 46.9864 5.4412C46.9747 5.41369 46.9688 5.38417 46.9688 5.35436C46.9688 5.32454 46.9747 5.29501 46.9864 5.2675C46.9981 5.23998 47.0151 5.21503 47.0366 5.19408C47.0723 5.15873 47.1185 5.13561 47.1685 5.12814L51.7153 4.47601C51.7521 4.47108 51.7871 4.45731 51.8172 4.43591C51.8473 4.41451 51.8716 4.38613 51.888 4.35329L53.9311 0.288586C53.9445 0.261894 53.9632 0.238091 53.986 0.218553C54.0088 0.199015 54.0353 0.184129 54.064 0.17476C54.0926 0.165391 54.1229 0.161726 54.153 0.163971C54.1832 0.166216 54.2125 0.174328 54.2394 0.187841C54.2753 0.211295 54.3037 0.244338 54.3212 0.283097Z" fill="#F3CC30"/>
<path d="M54.1064 1.22314L52.2955 4.68519C52.2483 4.77436 52.1793 4.85045 52.0946 4.90645C52.0099 4.96246 51.9123 4.9966 51.8107 5.00575L47.875 5.36111L52.0336 5.54429C52.1622 5.55045 52.2894 5.51591 52.3966 5.44572C52.5039 5.37553 52.5856 5.27335 52.6298 5.15412L54.1064 1.22314Z" fill="#F7DB5E"/>
<path d="M49.6998 12.8274L49.6088 13.3403C49.5985 13.3993 49.6123 13.4599 49.647 13.509C49.6818 13.558 49.7348 13.5916 49.7945 13.6023C49.8446 13.6107 49.896 13.603 49.9413 13.5803L54.0089 11.4701C54.0418 11.4529 54.0784 11.444 54.1156 11.444C54.1529 11.444 54.1895 11.4529 54.2224 11.4701L58.29 13.5803C58.3441 13.6076 58.4069 13.6129 58.4648 13.5951C58.5228 13.5773 58.5714 13.5378 58.6002 13.485C58.6232 13.4404 58.6311 13.3897 58.6225 13.3403L57.848 8.87814C57.8416 8.84187 57.8442 8.80462 57.8555 8.76954C57.8668 8.73447 57.8865 8.70261 57.913 8.67665L61.2042 5.51317C61.2257 5.49222 61.2428 5.46726 61.2545 5.43974C61.2661 5.41223 61.2721 5.38271 61.2721 5.35289C61.2721 5.32308 61.2661 5.29356 61.2545 5.26605C61.2428 5.23853 61.2257 5.21357 61.2042 5.19261C61.1686 5.15726 61.1223 5.13415 61.0723 5.12667L59.5493 4.90869C57.0902 9.26648 53.3179 11.5617 49.6998 12.8274Z" fill="#EDBD31"/>
<path d="M69.8305 0.283225L71.8735 4.34793C71.89 4.38092 71.9143 4.40949 71.9443 4.43119C71.9744 4.45288 72.0094 4.46706 72.0463 4.47249L76.5819 5.12276C76.6405 5.13351 76.6926 5.16623 76.7272 5.21405C76.7618 5.26187 76.7763 5.32108 76.7676 5.37921C76.7601 5.42851 76.7366 5.4741 76.7008 5.50926L73.4244 8.67274C73.3978 8.69823 73.378 8.72977 73.3667 8.76458C73.3554 8.79939 73.3529 8.83641 73.3594 8.87239L74.1358 13.3401C74.1456 13.399 74.1316 13.4594 74.0969 13.5083C74.0622 13.5572 74.0095 13.5909 73.9501 13.602C73.8998 13.6098 73.8484 13.6014 73.8033 13.5782L69.7376 11.4699C69.7047 11.4527 69.668 11.4437 69.6308 11.4437C69.5936 11.4437 69.5569 11.4527 69.524 11.4699L65.4564 13.5782C65.4297 13.5922 65.4005 13.6009 65.3704 13.6036C65.3403 13.6064 65.31 13.6033 65.2811 13.5944C65.2523 13.5856 65.2255 13.5712 65.2024 13.552C65.1792 13.5329 65.1601 13.5094 65.1462 13.483C65.1226 13.4392 65.1141 13.389 65.1221 13.3401L65.8929 8.87789C65.8994 8.84191 65.8969 8.80488 65.8856 8.77007C65.8743 8.73526 65.8544 8.70372 65.8279 8.67823L62.5366 5.51476C62.5151 5.49381 62.4981 5.46885 62.4864 5.44133C62.4747 5.41382 62.4688 5.3843 62.4688 5.35448C62.4688 5.32467 62.4747 5.29514 62.4864 5.26762C62.4981 5.24011 62.5151 5.21516 62.5366 5.1942C62.5723 5.15885 62.6185 5.13574 62.6685 5.12826L67.2153 4.47614C67.2521 4.47136 67.2872 4.45766 67.3173 4.43624C67.3475 4.41482 67.3718 4.38636 67.388 4.35342L69.4218 0.288715C69.4414 0.251444 69.471 0.220202 69.5073 0.19839C69.5437 0.176578 69.5854 0.165039 69.628 0.165039C69.6706 0.165039 69.7123 0.176578 69.7487 0.19839C69.785 0.220202 69.8146 0.251444 69.8342 0.288715L69.8305 0.283225Z" fill="#FFD651"/>
<path d="M69.6241 1.22266L67.8113 4.6847C67.7643 4.77398 67.6952 4.85015 67.6105 4.90618C67.5258 4.9622 67.4281 4.99627 67.3265 5.00526L63.3945 5.36062L67.5513 5.5438C67.68 5.54978 67.8074 5.5152 67.9149 5.44505C68.0224 5.37491 68.1045 5.27284 68.1493 5.15363L69.6241 1.22266Z" fill="#FFD651"/>
<path d="M65.2057 12.8272L65.1165 13.3401C65.1094 13.3817 65.1141 13.4244 65.1302 13.4635C65.1463 13.5026 65.1731 13.5365 65.2076 13.5614C65.2421 13.5863 65.283 13.6012 65.3256 13.6045C65.3682 13.6078 65.411 13.5994 65.449 13.58L69.524 11.4699C69.5569 11.4527 69.5936 11.4437 69.6308 11.4437C69.668 11.4437 69.7047 11.4527 69.7376 11.4699L73.7959 13.58C73.85 13.6073 73.9127 13.6126 73.9707 13.5948C74.0287 13.577 74.0773 13.5375 74.1061 13.4848C74.1301 13.4405 74.1379 13.3894 74.1284 13.3401L73.3539 8.87789C73.3479 8.84148 73.3508 8.80418 73.3624 8.76912C73.3741 8.73406 73.3941 8.70227 73.4207 8.6764L76.712 5.51293C76.7545 5.47013 76.7783 5.41258 76.7783 5.35265C76.7783 5.29272 76.7545 5.23517 76.712 5.19237C76.6763 5.15702 76.6301 5.1339 76.5801 5.12643L75.0571 4.90845C72.5979 9.26623 68.8238 11.5614 65.2057 12.8272Z" fill="#FFD651"/>
</svg>
