<svg width="17" height="17" viewBox="0 0 17 17" fill="none" xmlns="http://www.w3.org/2000/svg">
<path d="M5.53906 8.4444H10.3842" stroke="#7DC5FF" stroke-width="1.31146" stroke-miterlimit="10" stroke-linecap="round" stroke-linejoin="round"/>
<path d="M5.53906 11.213H8.57072" stroke="#7DC5FF" stroke-width="1.31146" stroke-miterlimit="10" stroke-linecap="round" stroke-linejoin="round"/>
<path d="M6.92338 4.15294H9.69202C11.0763 4.15294 11.0763 3.46078 11.0763 2.76863C11.0763 1.38431 10.3842 1.38431 9.69202 1.38431H6.92338C6.23122 1.38431 5.53906 1.38431 5.53906 2.76863C5.53906 4.15294 6.23122 4.15294 6.92338 4.15294Z" stroke="#7DC5FF" stroke-width="1.31146" stroke-miterlimit="10" stroke-linecap="round" stroke-linejoin="round"/>
<path d="M11.0762 2.78252C13.3811 2.90711 14.537 3.75846 14.537 6.92163V11.0746C14.537 13.8432 13.8448 15.2275 10.384 15.2275H6.23108C2.77028 15.2275 2.07812 13.8432 2.07812 11.0746V6.92163C2.07812 3.76538 3.23403 2.90711 5.53892 2.78252" stroke="#7DC5FF" stroke-width="1.31146" stroke-miterlimit="10" stroke-linecap="round" stroke-linejoin="round"/>
</svg>
