<svg width="14" height="14" viewBox="0 0 14 14" fill="none" xmlns="http://www.w3.org/2000/svg">
<path d="M6.20758 1.68979C6.60059 1.35373 7.24422 1.35373 7.64293 1.68979L8.54287 2.46442C8.71375 2.61251 9.03272 2.73212 9.26055 2.73212H10.2288C10.8326 2.73212 11.3281 3.22766 11.3281 3.83142V4.79972C11.3281 5.02185 11.4478 5.34652 11.5958 5.51739L12.3705 6.41734C12.7065 6.81035 12.7065 7.45398 12.3705 7.85269L11.5958 8.75263C11.4478 8.92351 11.3281 9.24247 11.3281 9.47031V10.4386C11.3281 11.0424 10.8326 11.5379 10.2288 11.5379H9.26055C9.03841 11.5379 8.71375 11.6575 8.54287 11.8056L7.64293 12.5802C7.24992 12.9163 6.60629 12.9163 6.20758 12.5802L5.30763 11.8056C5.13676 11.6575 4.81779 11.5379 4.58996 11.5379H3.60458C3.00082 11.5379 2.50528 11.0424 2.50528 10.4386V9.46461C2.50528 9.24247 2.38567 8.92351 2.24327 8.75263L1.47433 7.84699C1.14397 7.45398 1.14397 6.81604 1.47433 6.42303L2.24327 5.51739C2.38567 5.34652 2.50528 5.02755 2.50528 4.80541V3.82573C2.50528 3.22197 3.00082 2.72643 3.60458 2.72643H4.58996C4.8121 2.72643 5.13676 2.60682 5.30763 2.45872L6.20758 1.68979Z" fill="#7DC5FF"/>
<path d="M6.22994 8.93412C6.11602 8.93412 6.0078 8.88856 5.92806 8.80881L4.54967 7.43042C4.38449 7.26524 4.38449 6.99184 4.54967 6.82666C4.71485 6.66148 4.98825 6.66148 5.15342 6.82666L6.22994 7.90317L8.67915 5.45396C8.84433 5.28878 9.11773 5.28878 9.28291 5.45396C9.44809 5.61914 9.44809 5.89254 9.28291 6.05772L6.53182 8.80881C6.45208 8.88856 6.34386 8.93412 6.22994 8.93412Z" fill="black"/>
</svg>
